<mxfile host="65bd71144e">
    <diagram id="ommMPEEd7tkPvLuOq4lX" name="Page-1">
        <mxGraphModel dx="2723" dy="1374" grid="0" gridSize="10" guides="1" tooltips="1" connect="1" arrows="1" fold="1" page="1" pageScale="1" pageWidth="850" pageHeight="1100" background="#666666" math="0" shadow="0">
            <root>
                <mxCell id="0"/>
                <mxCell id="1" parent="0"/>
                <mxCell id="2" value="run" style="swimlane;fontStyle=1;align=center;verticalAlign=top;childLayout=stackLayout;horizontal=1;startSize=26;horizontalStack=0;resizeParent=1;resizeParentMax=0;resizeLast=0;collapsible=1;marginBottom=0;shadow=1;" vertex="1" parent="1">
                    <mxGeometry x="220" y="465" width="150" height="490" as="geometry"/>
                </mxCell>
                <mxCell id="3" value="+ ballset : balldb()&#10;+ dt : float&#10;+ border : border()&#10;+ frame : int&#10;+ my_paddle : Paddle()&#10;+ en_paddle : Paddle()&#10;+ screen : turtle.screen()&#10;+ plist : list&#10;+ host : str&#10;+ port : int&#10;+ addr : str&#10;" style="text;strokeColor=none;fillColor=none;align=left;verticalAlign=top;spacingLeft=4;spacingRight=4;overflow=hidden;rotatable=0;points=[[0,0.5],[1,0.5]];portConstraint=eastwest;shadow=1;" vertex="1" parent="2">
                    <mxGeometry y="26" width="150" height="164" as="geometry"/>
                </mxCell>
                <mxCell id="4" value="" style="line;strokeWidth=1;fillColor=none;align=left;verticalAlign=middle;spacingTop=-1;spacingLeft=3;spacingRight=3;rotatable=0;labelPosition=right;points=[];portConstraint=eastwest;strokeColor=inherit;shadow=1;" vertex="1" parent="2">
                    <mxGeometry y="190" width="150" height="8" as="geometry"/>
                </mxCell>
                <mxCell id="5" value="+ mode_selecter()&#10;+ draw()&#10;+ draw_paddle&#10;+ ball_ball_hit()&#10;+ball_paddle_hit()&#10;+ connnecting()&#10;+ desition(data : str)&#10;+ recv()&#10;+ turtle_key_my()&#10;+ turtle_key_en()&#10;+ drawui()&#10;+ move_left()&#10;+ move_right()&#10;+ fire()&#10;+ fire2()&#10;+ run()&#10;+ wait_player()&#10;+ type_selector()&#10;+ run_fps_cap()&#10;+ end_screen()" style="text;strokeColor=none;fillColor=none;align=left;verticalAlign=top;spacingLeft=4;spacingRight=4;overflow=hidden;rotatable=0;points=[[0,0.5],[1,0.5]];portConstraint=eastwest;shadow=1;" vertex="1" parent="2">
                    <mxGeometry y="198" width="150" height="292" as="geometry"/>
                </mxCell>
                <mxCell id="6" value="Paddle" style="swimlane;fontStyle=1;align=center;verticalAlign=top;childLayout=stackLayout;horizontal=1;startSize=26;horizontalStack=0;resizeParent=1;resizeParentMax=0;resizeLast=0;collapsible=1;marginBottom=0;shadow=1;" vertex="1" parent="1">
                    <mxGeometry x="660" y="765" width="160" height="300" as="geometry"/>
                </mxCell>
                <mxCell id="7" value="+ widht : int&#10;+ height : int&#10;+ location : list&#10;+ color : tuple&#10;+ myturtle : turtle&#10;+ team : str&#10;+ head : int&#10;+ bhp : int&#10;+ type : str&#10;+ time : float" style="text;strokeColor=none;fillColor=none;align=left;verticalAlign=top;spacingLeft=4;spacingRight=4;overflow=hidden;rotatable=0;points=[[0,0.5],[1,0.5]];portConstraint=eastwest;shadow=1;" vertex="1" parent="6">
                    <mxGeometry y="26" width="160" height="154" as="geometry"/>
                </mxCell>
                <mxCell id="8" value="" style="line;strokeWidth=1;fillColor=none;align=left;verticalAlign=middle;spacingTop=-1;spacingLeft=3;spacingRight=3;rotatable=0;labelPosition=right;points=[];portConstraint=eastwest;strokeColor=inherit;shadow=1;" vertex="1" parent="6">
                    <mxGeometry y="180" width="160" height="8" as="geometry"/>
                </mxCell>
                <mxCell id="9" value="+ set_location(location)&#10;+ draw()&#10;+ draw_s()&#10;+ draw_n()&#10;+ correct_type_stat()&#10;+ clear()&#10;+ __repr__() : str" style="text;strokeColor=none;fillColor=none;align=left;verticalAlign=top;spacingLeft=4;spacingRight=4;overflow=hidden;rotatable=0;points=[[0,0.5],[1,0.5]];portConstraint=eastwest;shadow=1;" vertex="1" parent="6">
                    <mxGeometry y="188" width="160" height="112" as="geometry"/>
                </mxCell>
                <mxCell id="10" value="ball" style="swimlane;fontStyle=1;align=center;verticalAlign=top;childLayout=stackLayout;horizontal=1;startSize=26;horizontalStack=0;resizeParent=1;resizeParentMax=0;resizeLast=0;collapsible=1;marginBottom=0;shadow=1;" vertex="1" parent="1">
                    <mxGeometry x="360" y="35" width="280" height="320" as="geometry"/>
                </mxCell>
                <mxCell id="11" value="+ color : tuple&#10;+ size : float&#10;+ x : float&#10;+ y : float&#10;+ vx : float&#10;+ vy : float&#10;+mass : float&#10;+ wt : int&#10;+ team : str&#10;+ bhp : int" style="text;strokeColor=none;fillColor=none;align=left;verticalAlign=top;spacingLeft=4;spacingRight=4;overflow=hidden;rotatable=0;points=[[0,0.5],[1,0.5]];portConstraint=eastwest;shadow=1;" vertex="1" parent="10">
                    <mxGeometry y="26" width="280" height="154" as="geometry"/>
                </mxCell>
                <mxCell id="12" value="" style="line;strokeWidth=1;fillColor=none;align=left;verticalAlign=middle;spacingTop=-1;spacingLeft=3;spacingRight=3;rotatable=0;labelPosition=right;points=[];portConstraint=eastwest;strokeColor=inherit;shadow=1;" vertex="1" parent="10">
                    <mxGeometry y="180" width="280" height="8" as="geometry"/>
                </mxCell>
                <mxCell id="13" value="+ draw_ball()&#10;+ move_ball(dt : float)&#10;+ wall_hit(canvas_width : int, canvas_height : int)&#10;+ paddle_hit(paddle : paddle)&#10;+ distance(that : ball)&#10;+ distance_paddle(paddle : paddle)&#10;+ ball_hit(that : ball)&#10;+ __repr__() : str&#10;" style="text;strokeColor=none;fillColor=none;align=left;verticalAlign=top;spacingLeft=4;spacingRight=4;overflow=hidden;rotatable=0;points=[[0,0.5],[1,0.5]];portConstraint=eastwest;shadow=1;" vertex="1" parent="10">
                    <mxGeometry y="188" width="280" height="132" as="geometry"/>
                </mxCell>
                <mxCell id="14" value="balldb" style="swimlane;fontStyle=1;align=center;verticalAlign=top;childLayout=stackLayout;horizontal=1;startSize=26;horizontalStack=0;resizeParent=1;resizeParentMax=0;resizeLast=0;collapsible=1;marginBottom=0;shadow=1;" vertex="1" parent="1">
                    <mxGeometry x="660" y="695" width="160" height="52" as="geometry"/>
                </mxCell>
                <mxCell id="15" value="+ ball : list" style="text;strokeColor=none;fillColor=none;align=left;verticalAlign=top;spacingLeft=4;spacingRight=4;overflow=hidden;rotatable=0;points=[[0,0.5],[1,0.5]];portConstraint=eastwest;shadow=1;" vertex="1" parent="14">
                    <mxGeometry y="26" width="160" height="26" as="geometry"/>
                </mxCell>
                <mxCell id="20" value="border" style="swimlane;fontStyle=1;align=center;verticalAlign=top;childLayout=stackLayout;horizontal=1;startSize=26;horizontalStack=0;resizeParent=1;resizeParentMax=0;resizeLast=0;collapsible=1;marginBottom=0;shadow=1;" vertex="1" parent="1">
                    <mxGeometry x="20" y="465" width="160" height="120" as="geometry"/>
                </mxCell>
                <mxCell id="21" value="+ canvas_width : int&#10;+ canvas_height : int" style="text;strokeColor=none;fillColor=none;align=left;verticalAlign=top;spacingLeft=4;spacingRight=4;overflow=hidden;rotatable=0;points=[[0,0.5],[1,0.5]];portConstraint=eastwest;shadow=1;" vertex="1" parent="20">
                    <mxGeometry y="26" width="160" height="44" as="geometry"/>
                </mxCell>
                <mxCell id="22" value="" style="line;strokeWidth=1;fillColor=none;align=left;verticalAlign=middle;spacingTop=-1;spacingLeft=3;spacingRight=3;rotatable=0;labelPosition=right;points=[];portConstraint=eastwest;strokeColor=inherit;shadow=1;" vertex="1" parent="20">
                    <mxGeometry y="70" width="160" height="8" as="geometry"/>
                </mxCell>
                <mxCell id="23" value="+ draw_border()&#10;+ draw_line()" style="text;strokeColor=none;fillColor=none;align=left;verticalAlign=top;spacingLeft=4;spacingRight=4;overflow=hidden;rotatable=0;points=[[0,0.5],[1,0.5]];portConstraint=eastwest;shadow=1;" vertex="1" parent="20">
                    <mxGeometry y="78" width="160" height="42" as="geometry"/>
                </mxCell>
                <mxCell id="26" style="edgeStyle=none;html=1;exitX=1;exitY=0.5;exitDx=0;exitDy=0;entryX=0;entryY=0.5;entryDx=0;entryDy=0;endArrow=none;endFill=0;startArrow=diamond;startFill=1;targetPerimeterSpacing=0;startSize=13;shadow=1;" edge="1" parent="1" source="3" target="15">
                    <mxGeometry relative="1" as="geometry">
                        <Array as="points">
                            <mxPoint x="600" y="573"/>
                            <mxPoint x="600" y="734"/>
                        </Array>
                    </mxGeometry>
                </mxCell>
                <mxCell id="27" style="edgeStyle=none;html=1;exitX=1;exitY=0.5;exitDx=0;exitDy=0;entryX=0.5;entryY=0;entryDx=0;entryDy=0;startArrow=none;startFill=0;endArrow=diamond;endFill=1;startSize=13;targetPerimeterSpacing=0;shadow=1;" edge="1" parent="1" source="11" target="14">
                    <mxGeometry relative="1" as="geometry">
                        <Array as="points">
                            <mxPoint x="740" y="138"/>
                        </Array>
                    </mxGeometry>
                </mxCell>
                <mxCell id="30" style="edgeStyle=none;html=1;exitX=0;exitY=0.5;exitDx=0;exitDy=0;entryX=1;entryY=0.5;entryDx=0;entryDy=0;startArrow=none;startFill=0;endArrow=diamond;endFill=1;startSize=13;targetPerimeterSpacing=0;shadow=1;" edge="1" parent="1" source="7" target="5">
                    <mxGeometry relative="1" as="geometry">
                        <Array as="points">
                            <mxPoint x="600" y="868"/>
                            <mxPoint x="600" y="809"/>
                        </Array>
                    </mxGeometry>
                </mxCell>
                <mxCell id="31" style="edgeStyle=none;html=1;exitX=1;exitY=0.5;exitDx=0;exitDy=0;entryX=0;entryY=0.5;entryDx=0;entryDy=0;startArrow=none;startFill=0;endArrow=diamond;endFill=1;startSize=13;targetPerimeterSpacing=0;shadow=1;" edge="1" parent="1" source="21" target="3">
                    <mxGeometry relative="1" as="geometry">
                        <Array as="points">
                            <mxPoint x="200" y="513"/>
                            <mxPoint x="200" y="573"/>
                        </Array>
                    </mxGeometry>
                </mxCell>
                <mxCell id="32" value="1...n" style="text;html=1;align=center;verticalAlign=middle;resizable=0;points=[];autosize=1;strokeColor=none;fillColor=none;shadow=1;" vertex="1" parent="1">
                    <mxGeometry x="170" y="490" width="50" height="30" as="geometry"/>
                </mxCell>
                <mxCell id="33" value="1" style="text;html=1;align=center;verticalAlign=middle;resizable=0;points=[];autosize=1;strokeColor=none;fillColor=none;shadow=1;" vertex="1" parent="1">
                    <mxGeometry x="195" y="570" width="30" height="30" as="geometry"/>
                </mxCell>
                <mxCell id="34" value="1" style="text;html=1;align=center;verticalAlign=middle;resizable=0;points=[];autosize=1;strokeColor=none;fillColor=none;shadow=1;" vertex="1" parent="1">
                    <mxGeometry x="375" y="540" width="30" height="30" as="geometry"/>
                </mxCell>
                <mxCell id="35" value="1...n" style="text;html=1;align=center;verticalAlign=middle;resizable=0;points=[];autosize=1;strokeColor=none;fillColor=none;shadow=1;" vertex="1" parent="1">
                    <mxGeometry x="615" y="700" width="50" height="30" as="geometry"/>
                </mxCell>
                <mxCell id="36" value="1....n" style="text;html=1;align=center;verticalAlign=middle;resizable=0;points=[];autosize=1;strokeColor=none;fillColor=none;shadow=1;" vertex="1" parent="1">
                    <mxGeometry x="640" y="105" width="50" height="30" as="geometry"/>
                </mxCell>
                <mxCell id="38" value="1" style="text;html=1;align=center;verticalAlign=middle;resizable=0;points=[];autosize=1;strokeColor=none;fillColor=none;shadow=1;" vertex="1" parent="1">
                    <mxGeometry x="745" y="655" width="30" height="30" as="geometry"/>
                </mxCell>
                <mxCell id="39" value="1" style="text;html=1;align=center;verticalAlign=middle;resizable=0;points=[];autosize=1;strokeColor=none;fillColor=none;shadow=1;" vertex="1" parent="1">
                    <mxGeometry x="370" y="780" width="30" height="30" as="geometry"/>
                </mxCell>
                <mxCell id="40" value="1...n" style="text;html=1;align=center;verticalAlign=middle;resizable=0;points=[];autosize=1;strokeColor=none;fillColor=none;shadow=1;" vertex="1" parent="1">
                    <mxGeometry x="615" y="840" width="50" height="30" as="geometry"/>
                </mxCell>
                <mxCell id="42" style="edgeStyle=none;html=1;exitX=0;exitY=0.5;exitDx=0;exitDy=0;entryX=0.5;entryY=0;entryDx=0;entryDy=0;startArrow=none;startFill=0;endArrow=diamond;endFill=1;startSize=13;targetPerimeterSpacing=0;shadow=1;" edge="1" parent="1" source="11" target="2">
                    <mxGeometry relative="1" as="geometry">
                        <Array as="points">
                            <mxPoint x="295" y="138"/>
                        </Array>
                    </mxGeometry>
                </mxCell>
                <mxCell id="43" value="1...n" style="text;html=1;align=center;verticalAlign=middle;resizable=0;points=[];autosize=1;strokeColor=none;fillColor=none;shadow=1;" vertex="1" parent="1">
                    <mxGeometry x="315" y="95" width="50" height="30" as="geometry"/>
                </mxCell>
                <mxCell id="44" value="1" style="text;html=1;align=center;verticalAlign=middle;resizable=0;points=[];autosize=1;strokeColor=none;fillColor=none;shadow=1;" vertex="1" parent="1">
                    <mxGeometry x="295" y="435" width="30" height="30" as="geometry"/>
                </mxCell>
            </root>
        </mxGraphModel>
    </diagram>
</mxfile>